<?xml version="1.0" encoding="UTF-8" standalone="no"?>
<!-- Created with Inkscape (http://www.inkscape.org/) -->

<svg
   xmlns:dc="http://purl.org/dc/elements/1.1/"
   xmlns:cc="http://creativecommons.org/ns#"
   xmlns:rdf="http://www.w3.org/1999/02/22-rdf-syntax-ns#"
   xmlns:svg="http://www.w3.org/2000/svg"
   xmlns="http://www.w3.org/2000/svg"
   xmlns:sodipodi="http://sodipodi.sourceforge.net/DTD/sodipodi-0.dtd"
   xmlns:inkscape="http://www.inkscape.org/namespaces/inkscape"
   width="64"
   height="64"
   viewBox="0 0 16.933333 16.933334"
   version="1.1"
   id="svg8"
   inkscape:version="0.92.4 (5da689c313, 2019-01-14)"
   sodipodi:docname="java.svg">
  <defs
     id="defs2" />
  <sodipodi:namedview
     id="base"
     pagecolor="#ffffff"
     bordercolor="#666666"
     borderopacity="1.0"
     inkscape:pageopacity="0.0"
     inkscape:pageshadow="2"
     inkscape:zoom="7.919596"
     inkscape:cx="42.903294"
     inkscape:cy="32.296377"
     inkscape:document-units="mm"
     inkscape:current-layer="layer1"
     showgrid="true"
     units="px"
     inkscape:snap-bbox="true"
     inkscape:bbox-nodes="true"
     inkscape:window-width="1850"
     inkscape:window-height="1016"
     inkscape:window-x="70"
     inkscape:window-y="27"
     inkscape:window-maximized="1"
     inkscape:snap-global="true"
     inkscape:snap-intersection-paths="true">
    <inkscape:grid
       type="xygrid"
       id="grid815" />
  </sodipodi:namedview>
  <metadata
     id="metadata5">
    <rdf:RDF>
      <cc:Work
         rdf:about="">
        <dc:format>image/svg+xml</dc:format>
        <dc:type
           rdf:resource="http://purl.org/dc/dcmitype/StillImage" />
        <dc:title></dc:title>
      </cc:Work>
    </rdf:RDF>
  </metadata>
  <g
     inkscape:label="Capa 1"
     inkscape:groupmode="layer"
     id="layer1"
     transform="translate(0,-280.06665)">
    <text
       xml:space="preserve"
       style="font-style:normal;font-weight:normal;font-size:10.58333302px;line-height:1.25;font-family:sans-serif;letter-spacing:0px;word-spacing:0px;fill:#000000;fill-opacity:1;stroke:none;stroke-width:0.26458332"
       x="13.229166"
       y="302.29166"
       id="text3861"><tspan
         sodipodi:role="line"
         id="tspan3859"
         x="13.229166"
         y="311.65543"
         style="stroke-width:0.26458332" /></text>
    <text
       xml:space="preserve"
       style="font-style:normal;font-variant:normal;font-weight:normal;font-stretch:normal;font-size:10.58333302px;line-height:1.25;font-family:'URW Gothic L';-inkscape-font-specification:'URW Gothic L';letter-spacing:0px;word-spacing:0px;fill:#000000;fill-opacity:1;stroke:none;stroke-width:0.26458332"
       x="51.115295"
       y="305.48578"
       id="text5110"><tspan
         sodipodi:role="line"
         id="tspan5108"
         x="51.115295"
         y="315.31686"
         style="stroke-width:0.26458332" /></text>
    <path
       inkscape:connector-curvature="0"
       d="m 6.2239491,293.03761 c 0,0 -0.6113714,0.35551 0.4350049,0.47581 1.2676393,0.14462 1.9155834,0.12389 3.3125046,-0.14053 0,0 0.3672624,0.23032 0.8802304,0.42976 -3.1316124,1.34225 -7.0875355,-0.0776 -4.6277399,-0.76504"
       id="path1901"
       style="stroke-width:0.03124483;fill:#646464;fill-opacity:1" />
    <path
       inkscape:connector-curvature="0"
       d="m 5.841285,291.28621 c 0,0 -0.6856853,0.50757 0.361495,0.61582 1.3541425,0.13972 2.4235874,0.15117 4.274056,-0.20521 0,0 0.255937,0.25951 0.658457,0.40142 -3.7864196,1.1072 -8.003755,0.0874 -5.294008,-0.81203"
       id="path1903"
       style="stroke-width:0.03124483;fill:#646464;fill-opacity:1" />
    <path
       inkscape:connector-curvature="0"
       d="m 9.0672858,288.31518 c 0.7716068,0.88842 -0.2027202,1.6879 -0.2027202,1.6879 0,0 1.9593104,-1.01148 1.059517,-2.2781 -0.8404457,-1.18113 -1.4848857,-1.76805 2.0040594,-3.79146 0,-5e-5 -5.4765071,1.36774 -2.8608562,4.38166"
       id="path1905"
       style="stroke-width:0.03124483;fill:#646464;fill-opacity:1" />
    <path
       inkscape:connector-curvature="0"
       d="m 13.20914,294.33321 c 0,0 0.452379,0.37272 -0.498296,0.66109 -1.807543,0.54756 -7.5235629,0.71299 -9.1113779,0.0217 -0.5707839,-0.24827 0.4996094,-0.59283 0.8363571,-0.66518 0.3511279,-0.0762 0.5518042,-0.062 0.5518042,-0.062 -0.6348047,-0.44713 -4.1029448,0.87804 -1.7617001,1.25764 6.3851329,1.03542 11.6394287,-0.46633 9.9832127,-1.21332"
       id="path1907"
       style="stroke-width:0.03124483;fill:#646464;fill-opacity:1" />
    <path
       inkscape:connector-curvature="0"
       d="m 6.5179191,289.47151 c 0,0 -2.9075031,0.69049 -1.0295875,0.94133 0.7928493,0.10616 2.3735108,0.0822 3.8458406,-0.0412 1.2032538,-0.1016 2.4113968,-0.31733 2.4113968,-0.31733 0,0 -0.424273,0.18169 -0.731237,0.39127 -2.9524712,0.77658 -8.6562251,0.41523 -7.0141705,-0.37901 1.388672,-0.67123 2.5177576,-0.5951 2.5177576,-0.5951"
       id="path1909"
       style="stroke-width:0.03124483;fill:#646464;fill-opacity:1" />
    <path
       inkscape:connector-curvature="0"
       d="m 11.733598,292.38689 c 3.001307,-1.55964 1.613583,-3.0584 0.644952,-2.85648 -0.237395,0.0495 -0.343244,0.0922 -0.343244,0.0922 0,0 0.08818,-0.13804 0.25652,-0.19776 1.916168,-0.67371 3.389883,1.98689 -0.618599,3.04065 0,0 0.0465,-0.0415 0.06037,-0.0786"
       id="path1911"
       style="stroke-width:0.03124483;fill:#646464;fill-opacity:1" />
    <path
       inkscape:connector-curvature="0"
       d="m 9.9240826,280.66607 c 0,0 1.6621294,1.66271 -1.576574,4.21959 -2.5971079,2.051 -0.5922455,3.22045 -0.00108,4.55656 -1.51598,-1.36778 -2.6284942,-2.57185 -1.8821459,-3.69245 1.0955783,-1.64498 4.1303933,-2.44251 3.4598179,-5.0837"
       id="path1913"
       style="stroke-width:0.03124483;fill:#646464;fill-opacity:1" />
    <path
       inkscape:connector-curvature="0"
       d="m 6.8128375,296.61313 c 2.8809311,0.1844 7.3048555,-0.10234 7.4096835,-1.46554 0,0 -0.201406,0.51677 -2.380957,0.92717 -2.4589198,0.46274 -5.4916902,0.40872 -7.2904016,0.11213 6.23e-5,0 0.3682108,0.30477 2.2616751,0.42624"
       id="path1915"
       style="stroke-width:0.03124483;fill:#646464;fill-opacity:1" />
  </g>
</svg>
