<?xml version="1.0" encoding="UTF-8" standalone="no"?>
<!-- Created with Inkscape (http://www.inkscape.org/) -->

<svg
   xmlns:dc="http://purl.org/dc/elements/1.1/"
   xmlns:cc="http://creativecommons.org/ns#"
   xmlns:rdf="http://www.w3.org/1999/02/22-rdf-syntax-ns#"
   xmlns:svg="http://www.w3.org/2000/svg"
   xmlns="http://www.w3.org/2000/svg"
   xmlns:sodipodi="http://sodipodi.sourceforge.net/DTD/sodipodi-0.dtd"
   xmlns:inkscape="http://www.inkscape.org/namespaces/inkscape"
   width="160"
   height="32"
   viewBox="0 0 42.333333 8.466667"
   version="1.1"
   id="svg8"
   inkscape:version="0.92.4 (5da689c313, 2019-01-14)"
   sodipodi:docname="icon_text_color.svg">
  <defs
     id="defs2" />
  <sodipodi:namedview
     id="base"
     pagecolor="#ffffff"
     bordercolor="#666666"
     borderopacity="1.0"
     inkscape:pageopacity="0.0"
     inkscape:pageshadow="2"
     inkscape:zoom="11.2"
     inkscape:cx="38.357608"
     inkscape:cy="9.8576535"
     inkscape:document-units="mm"
     inkscape:current-layer="layer1"
     showgrid="true"
     units="px"
     inkscape:snap-bbox="true"
     inkscape:bbox-nodes="true"
     inkscape:window-width="1850"
     inkscape:window-height="1016"
     inkscape:window-x="70"
     inkscape:window-y="27"
     inkscape:window-maximized="1"
     inkscape:snap-global="false"
     inkscape:snap-intersection-paths="true">
    <inkscape:grid
       type="xygrid"
       id="grid815" />
  </sodipodi:namedview>
  <metadata
     id="metadata5">
    <rdf:RDF>
      <cc:Work
         rdf:about="">
        <dc:format>image/svg+xml</dc:format>
        <dc:type
           rdf:resource="http://purl.org/dc/dcmitype/StillImage" />
        <dc:title />
      </cc:Work>
    </rdf:RDF>
  </metadata>
  <g
     inkscape:label="Capa 1"
     inkscape:groupmode="layer"
     id="layer1"
     transform="translate(0,-288.53332)">
    <path
       style="fill:#ab0953;fill-opacity:1;stroke:none;stroke-width:1.93761611;stroke-linejoin:round;stroke-miterlimit:4;stroke-dasharray:none;stroke-opacity:1"
       d="M 15.681641,0.87890625 C 6.6841123,0.92520927 3.8200647,7.2512048 3.4562482,8.9751247 3.0924317,10.699045 2.5210419,13.23091 2.2346428,13.6552 3.1329317,15.278484 5.8667673,17.416395 9.0761719,18.279297 14.751492,19.805243 21.593506,17.980134 23.744141,13.941406 25.521842,10.60295 23.279948,6.5890632 18.357422,5.3925781 14.440655,4.4405151 9.7477839,5.7399466 8.4609375,8.5507812 7.4943403,10.662063 8.9843224,13.191317 12.132812,13.785156 c 1.071596,0.202054 2.299524,0.107104 3.269532,-0.240234 0.970007,-0.347565 1.673411,-0.913038 1.882812,-1.69336 0.114463,-0.426557 0.05065,-0.915115 -0.21875,-1.421874 C 16.797007,9.9229284 16.049042,9.4130199 15.283203,9.2304688 14.51735,9.0479932 13.632048,8.8846934 15.275391,8.8359375 16.918733,8.7873328 18,9.4103746 18.458984,9.8476562 c 0.643512,0.6130848 0.791698,1.4788228 0.587891,2.2382818 -0.318009,1.18507 -1.442531,2.073279 -2.824219,2.568359 -1.381688,0.495118 -3.026711,0.624693 -4.55664,0.335937 C 7.4345866,14.192187 5.4904844,10.916405 6.7460938,8.1738281 8.3640543,4.6397809 14.132816,3.039284 18.953125,4.2109375 24.887659,5.653432 27.543597,10.408839 25.431641,14.375 22.912789,19.105306 15.044874,21.304804 8.468471,19.536552 5.2490423,18.487964 2.7956687,17.156021 1.0297131,14.407133 c 0.791872,3.510014 0.2295518,10.838728 7.8355213,14.655367 0.4727678,-0.832306 1.2927116,-1.805387 2.7382816,-2.703125 3.333716,-2.070274 7.487108,-1.744632 12.121093,-4.804687 3.69191,-2.437987 4.881871,-4.852507 5.964844,-7.707032 C 29.426498,13.450565 28.787091,11.037703 28.368654,9.0214147 27.950218,7.005126 24.67917,0.83260323 15.681641,0.87890625 Z M 30.984375,14.634766 c -1.134827,2.887552 -2.573014,5.617932 -6.431641,8.166015 -5.004627,3.304819 -9.410338,3.129481 -12.158203,4.835938 -1.107401,0.687717 -1.732951,1.375233 -2.103515,1.949219 C 10.826143,29.747806 11.391583,29.889378 12,30 l 4,1 c 0,0 0.580744,-0.282713 4.017578,-1.063337 3.436834,-0.780624 11.006784,-4.388311 10.966792,-15.301897 z"
       transform="matrix(0.26458333,0,0,0.26458333,0,288.53332)"
       id="rect3821"
       inkscape:connector-curvature="0"
       sodipodi:nodetypes="zzcccccccccccscccscccccccczzcccccczcc" />
    <text
       xml:space="preserve"
       style="font-style:normal;font-weight:normal;font-size:10.58333302px;line-height:1.25;font-family:sans-serif;letter-spacing:0px;word-spacing:0px;fill:#000000;fill-opacity:1;stroke:none;stroke-width:0.26458332"
       x="13.229166"
       y="302.29166"
       id="text3861"><tspan
         sodipodi:role="line"
         id="tspan3859"
         x="13.229166"
         y="311.65543"
         style="stroke-width:0.26458332" /></text>
    <text
       xml:space="preserve"
       style="font-style:normal;font-variant:normal;font-weight:normal;font-stretch:normal;font-size:10.58333302px;line-height:1.25;font-family:'URW Gothic L';-inkscape-font-specification:'URW Gothic L';letter-spacing:0px;word-spacing:0px;fill:#000000;fill-opacity:1;stroke:none;stroke-width:0.26458332"
       x="51.115295"
       y="305.48578"
       id="text5110"><tspan
         sodipodi:role="line"
         id="tspan5108"
         x="51.115295"
         y="315.31686"
         style="stroke-width:0.26458332" /></text>
    <g
       aria-label="gdmatrix"
       style="font-style:normal;font-variant:normal;font-weight:normal;font-stretch:normal;font-size:10.58333302px;line-height:1.25;font-family:'URW Gothic L';-inkscape-font-specification:'URW Gothic L';letter-spacing:0px;word-spacing:0px;fill:#000000;fill-opacity:1;stroke:none;stroke-width:0.26458332"
       id="text7225"
       transform="translate(-0.10022607,0.30067822)">
      <path
         d="m 13.944169,290.64063 h -0.548216 v 0.71861 c -0.407459,-0.55563 -0.903817,-0.81492 -1.585384,-0.81492 -1.185333,0 -2.074333,0.91864 -2.074333,2.14101 0,1.18533 0.926042,2.10397 2.111375,2.10397 0.726017,0 1.229783,-0.29634 1.548342,-0.91864 v 0.27411 c 0,0.40005 -0.04445,0.65194 -0.162984,0.90382 -0.214841,0.46672 -0.703791,0.73342 -1.326091,0.73342 -0.451909,0 -0.8001,-0.13335 -1.089025,-0.40745 -0.140759,-0.12595 -0.22225,-0.24448 -0.40005,-0.55563 H 9.8844027 c 0.2963333,0.94827 1.0149413,1.46685 2.0372913,1.46685 0.703792,0 1.296459,-0.2667 1.64465,-0.72602 0.274109,-0.37041 0.377825,-0.8001 0.377825,-1.59279 z m -2.103966,0.40746 c 0.874183,0 1.55575,0.68897 1.55575,1.57057 0,0.94826 -0.66675,1.66687 -1.548342,1.66687 -0.889,0 -1.55575,-0.70379 -1.55575,-1.64465 0,-0.92604 0.651933,-1.59279 1.548342,-1.59279 z"
         style="font-size:7.4083333px;stroke-width:0.26458332"
         id="path7250"
         inkscape:connector-curvature="0" />
      <path
         d="m 19.025013,289.21823 h -0.548217 v 2.06693 c -0.40005,-0.48155 -0.955675,-0.74084 -1.592792,-0.74084 -1.222375,0 -2.155825,0.91864 -2.155825,2.12619 0,1.20015 0.955675,2.11879 2.207684,2.11879 0.674158,0 1.133475,-0.24448 1.540933,-0.82974 v 0.73343 h 0.548217 z m -2.155825,1.82986 c 0.896408,0 1.629833,0.71861 1.629833,1.60761 0,0.889 -0.7112,1.62983 -1.577975,1.62983 -0.926042,0 -1.637242,-0.7112 -1.637242,-1.63724 0,-0.889 0.703792,-1.6002 1.585384,-1.6002 z"
         style="font-size:7.4083333px;stroke-width:0.26458332"
         id="path7252"
         inkscape:connector-curvature="0" />
      <path
         d="m 19.962515,294.69299 h 0.548216 v -2.36326 c 0,-0.80751 0.407459,-1.28164 1.089025,-1.28164 0.333375,0 0.644525,0.13335 0.84455,0.37042 0.1778,0.20743 0.251884,0.48895 0.251884,0.91122 v 2.36326 h 0.548216 v -2.34844 c 0,-0.39264 0.05927,-0.64453 0.192617,-0.83714 0.192617,-0.29634 0.5334,-0.46673 0.918633,-0.46673 0.3556,0 0.66675,0.14076 0.851959,0.38523 0.148166,0.20744 0.22225,0.51118 0.22225,0.91864 v 2.34844 h 0.548216 v -2.40771 c 0,-0.5334 -0.09631,-0.88159 -0.325966,-1.17052 -0.281517,-0.37041 -0.740834,-0.57785 -1.266825,-0.57785 -0.629709,0 -1.0668,0.24448 -1.407584,0.78529 -0.318558,-0.54081 -0.718608,-0.77788 -1.326091,-0.77788 -0.511175,0 -0.829734,0.15558 -1.140884,0.56304 v -0.46673 h -0.548216 z"
         style="font-size:7.4083333px;fill:#ab0953;fill-opacity:1;stroke-width:0.26458332"
         id="path7254"
         inkscape:connector-curvature="0" />
      <path
         d="m 31.034269,290.64063 h -0.548217 v 0.71861 c -0.40005,-0.56303 -0.896408,-0.81492 -1.6002,-0.81492 -1.214967,0 -2.1336,0.91864 -2.1336,2.1336 0,1.20756 0.926042,2.11138 2.170642,2.11138 0.688975,0 1.133475,-0.22966 1.563158,-0.80751 v 0.7112 h 0.548217 z m -2.1336,0.40746 c 0.889,0 1.585383,0.69638 1.585383,1.6002 0,0.91863 -0.681567,1.63724 -1.55575,1.63724 -0.918633,0 -1.622425,-0.71861 -1.622425,-1.64465 0,-0.88159 0.7112,-1.59279 1.592792,-1.59279 z"
         style="font-size:7.4083333px;fill:#ab0953;fill-opacity:1;stroke-width:0.26458332"
         id="path7256"
         inkscape:connector-curvature="0" />
      <path
         d="m 32.468476,294.69299 h 0.548217 v -3.556 h 0.911225 v -0.49636 h -0.911225 v -1.4224 h -0.548217 v 1.4224 h -0.874183 v 0.49636 h 0.874183 z"
         style="font-size:7.4083333px;fill:#ab0953;fill-opacity:1;stroke-width:0.26458332"
         id="path7258"
         inkscape:connector-curvature="0" />
      <path
         d="m 34.489793,294.69299 h 0.548217 v -2.36326 c 0,-0.75565 0.385233,-1.17052 1.148292,-1.2446 v -0.54081 c -0.585259,0.0296 -0.93345,0.22966 -1.148292,0.67416 v -0.57785 h -0.548217 z"
         style="font-size:7.4083333px;fill:#ab0953;fill-opacity:1;stroke-width:0.26458332"
         id="path7260"
         inkscape:connector-curvature="0" />
      <path
         d="m 36.71808,294.69299 h 0.548217 v -4.05236 H 36.71808 Z m 0,-4.54131 h 0.548217 v -0.93345 H 36.71808 Z"
         style="font-size:7.4083333px;fill:#ab0953;fill-opacity:1;stroke-width:0.26458332"
         id="path7262"
         inkscape:connector-curvature="0" />
      <path
         d="m 37.786502,294.69299 h 0.6223 l 1.096433,-1.62243 1.089025,1.62243 h 0.629708 l -1.414992,-2.06693 1.414992,-1.98543 H 40.59426 l -1.089025,1.56316 -1.096433,-1.56316 h -0.6223 l 1.407583,1.98543 z"
         style="font-size:7.4083333px;fill:#ab0953;fill-opacity:1;stroke-width:0.26458332"
         id="path7264"
         inkscape:connector-curvature="0" />
    </g>
  </g>
</svg>
