<?xml version="1.0" encoding="UTF-8" standalone="no"?>
<!-- Created with Inkscape (http://www.inkscape.org/) -->

<svg
   xmlns:dc="http://purl.org/dc/elements/1.1/"
   xmlns:cc="http://creativecommons.org/ns#"
   xmlns:rdf="http://www.w3.org/1999/02/22-rdf-syntax-ns#"
   xmlns:svg="http://www.w3.org/2000/svg"
   xmlns="http://www.w3.org/2000/svg"
   xmlns:sodipodi="http://sodipodi.sourceforge.net/DTD/sodipodi-0.dtd"
   xmlns:inkscape="http://www.inkscape.org/namespaces/inkscape"
   width="16"
   height="16"
   viewBox="0 0 4.2333332 4.2333335"
   version="1.1"
   id="svg8"
   inkscape:version="0.92.4 (5da689c313, 2019-01-14)"
   sodipodi:docname="clear.svg">
  <defs
     id="defs2" />
  <sodipodi:namedview
     id="base"
     pagecolor="#c8ffff"
     bordercolor="#666666"
     borderopacity="1.0"
     inkscape:pageopacity="0"
     inkscape:pageshadow="2"
     inkscape:zoom="5.6"
     inkscape:cx="9.5980728"
     inkscape:cy="7.6184183"
     inkscape:document-units="mm"
     inkscape:current-layer="layer1"
     showgrid="true"
     units="px"
     inkscape:window-width="1850"
     inkscape:window-height="1016"
     inkscape:window-x="70"
     inkscape:window-y="27"
     inkscape:window-maximized="1"
     inkscape:snap-bbox="true"
     inkscape:bbox-nodes="true"
     inkscape:pagecheckerboard="false">
    <inkscape:grid
       type="xygrid"
       id="grid815"
       spacingx="0.066145834"
       spacingy="0.066145834"
       empspacing="4" />
  </sodipodi:namedview>
  <metadata
     id="metadata5">
    <rdf:RDF>
      <cc:Work
         rdf:about="">
        <dc:format>image/svg+xml</dc:format>
        <dc:type
           rdf:resource="http://purl.org/dc/dcmitype/StillImage" />
        <dc:title></dc:title>
      </cc:Work>
    </rdf:RDF>
  </metadata>
  <g
     inkscape:label="Capa 1"
     inkscape:groupmode="layer"
     id="layer1"
     transform="translate(0,-292.76665)">
    <path
       style="color:#000000;font-style:normal;font-variant:normal;font-weight:normal;font-stretch:normal;font-size:medium;line-height:normal;font-family:sans-serif;font-variant-ligatures:normal;font-variant-position:normal;font-variant-caps:normal;font-variant-numeric:normal;font-variant-alternates:normal;font-feature-settings:normal;text-indent:0;text-align:start;text-decoration:none;text-decoration-line:none;text-decoration-style:solid;text-decoration-color:#000000;letter-spacing:normal;word-spacing:normal;text-transform:none;writing-mode:lr-tb;direction:ltr;text-orientation:mixed;dominant-baseline:auto;baseline-shift:baseline;text-anchor:start;white-space:normal;shape-padding:0;clip-rule:nonzero;display:inline;overflow:visible;visibility:visible;opacity:1;isolation:auto;mix-blend-mode:normal;color-interpolation:sRGB;color-interpolation-filters:linearRGB;solid-color:#000000;solid-opacity:1;vector-effect:none;fill:#ffffff;fill-opacity:1;fill-rule:nonzero;stroke:none;stroke-width:0.96706361;stroke-linecap:round;stroke-linejoin:miter;stroke-miterlimit:4;stroke-dasharray:none;stroke-dashoffset:0;stroke-opacity:1;color-rendering:auto;image-rendering:auto;shape-rendering:auto;text-rendering:auto;enable-background:accumulate"
       d="M 7.9941406,0.984375 C 7.5678768,0.98509311 7.1878229,1.1421634 6.8574219,1.28125 6.5270231,1.4203366 6.2675781,1.5605469 6.2675781,1.5605469 l -0.265625,0.140625 V 1.9960938 L 5.9824219,6 H 3.9941406 C 2.8945166,6 2,6.9003843 2,8 v 0.9960938 0.4960937 0.021484 5.4902345 H 14.003906 V 8.9960938 8 c 0,-1.0996157 -0.900375,-2 -2,-2 H 10 L 9.9941406,1.7011719 9.7363281,1.5605469 c 0,0 -0.2635305,-0.1402103 -0.5976562,-0.2792969 C 8.8045465,1.1421634 8.4219529,0.98361909 7.9941406,0.984375 Z m 0,0.9980469 C 8.0952543,1.9822329 8.4682283,2.083314 8.7558594,2.203125 8.8929391,2.260196 8.9066541,2.270233 8.9980469,2.3144531 9.0027348,3.8332535 9.0000002,5.25 9,6.9980469 9.3250487,6.9974968 9.7510979,6.9970727 10.001953,6.9960938 11,7.0000037 11.355652,7 12,7 c 0.580599,0 1.037109,0.419389 1.037109,1 V 8.9960938 H 2.9667969 V 8 C 2.9667969,7.419389 3.4194038,6.9926018 4,6.9941406 L 6,7 c 0.3123472,0 0.6446861,6.1e-5 1,0 2e-7,-1.75 -0.0076,-3.2092954 -0.00195,-4.6855469 C 7.0878673,2.2706106 7.1071336,2.2598179 7.2421875,2.203125 7.5255689,2.0836919 7.8914766,1.9827998 7.9941406,1.9824219 Z M 3,10 h 10 l 0.01367,4.013672 H 2.9824219 Z"
       transform="matrix(0.26458333,0,0,0.26458333,0,292.76665)"
       id="rect956"
       inkscape:connector-curvature="0"
       sodipodi:nodetypes="ccccccssccccccsscccsccccccssccscccccccccsc" />
  </g>
</svg>
