<?xml version="1.0" encoding="UTF-8" standalone="no"?>
<!-- Created with Inkscape (http://www.inkscape.org/) -->

<svg
   xmlns:dc="http://purl.org/dc/elements/1.1/"
   xmlns:cc="http://creativecommons.org/ns#"
   xmlns:rdf="http://www.w3.org/1999/02/22-rdf-syntax-ns#"
   xmlns:svg="http://www.w3.org/2000/svg"
   xmlns="http://www.w3.org/2000/svg"
   xmlns:sodipodi="http://sodipodi.sourceforge.net/DTD/sodipodi-0.dtd"
   xmlns:inkscape="http://www.inkscape.org/namespaces/inkscape"
   width="16"
   height="16"
   viewBox="0 0 4.2333332 4.2333335"
   version="1.1"
   id="svg8"
   inkscape:version="0.92.4 (5da689c313, 2019-01-14)"
   sodipodi:docname="update.svg">
  <defs
     id="defs2" />
  <sodipodi:namedview
     id="base"
     pagecolor="#c8ffff"
     bordercolor="#666666"
     borderopacity="1.0"
     inkscape:pageopacity="0"
     inkscape:pageshadow="2"
     inkscape:zoom="44.8"
     inkscape:cx="3.1015673"
     inkscape:cy="7.4711929"
     inkscape:document-units="mm"
     inkscape:current-layer="layer1"
     showgrid="true"
     units="px"
     inkscape:window-width="1850"
     inkscape:window-height="1016"
     inkscape:window-x="70"
     inkscape:window-y="27"
     inkscape:window-maximized="1"
     inkscape:snap-bbox="true"
     inkscape:bbox-nodes="true"
     inkscape:pagecheckerboard="false">
    <inkscape:grid
       type="xygrid"
       id="grid815"
       spacingx="0.066145834"
       spacingy="0.066145834"
       empspacing="4" />
  </sodipodi:namedview>
  <metadata
     id="metadata5">
    <rdf:RDF>
      <cc:Work
         rdf:about="">
        <dc:format>image/svg+xml</dc:format>
        <dc:type
           rdf:resource="http://purl.org/dc/dcmitype/StillImage" />
        <dc:title />
      </cc:Work>
    </rdf:RDF>
  </metadata>
  <g
     inkscape:label="Capa 1"
     inkscape:groupmode="layer"
     id="layer1"
     transform="translate(0,-292.76665)">
    <path
       style="color:#000000;font-style:normal;font-variant:normal;font-weight:normal;font-stretch:normal;font-size:medium;line-height:normal;font-family:sans-serif;font-variant-ligatures:normal;font-variant-position:normal;font-variant-caps:normal;font-variant-numeric:normal;font-variant-alternates:normal;font-feature-settings:normal;text-indent:0;text-align:start;text-decoration:none;text-decoration-line:none;text-decoration-style:solid;text-decoration-color:#000000;letter-spacing:normal;word-spacing:normal;text-transform:none;writing-mode:lr-tb;direction:ltr;text-orientation:mixed;dominant-baseline:auto;baseline-shift:baseline;text-anchor:start;white-space:normal;shape-padding:0;clip-rule:nonzero;display:inline;overflow:visible;visibility:visible;opacity:1;isolation:auto;mix-blend-mode:normal;color-interpolation:sRGB;color-interpolation-filters:linearRGB;solid-color:#000000;solid-opacity:1;vector-effect:none;fill:#ffffff;fill-opacity:1;fill-rule:nonzero;stroke:none;stroke-width:0.99999994;stroke-linecap:round;stroke-linejoin:round;stroke-miterlimit:4;stroke-dasharray:none;stroke-dashoffset:0;stroke-opacity:1;color-rendering:auto;image-rendering:auto;shape-rendering:auto;text-rendering:auto;enable-background:accumulate"
       d="M 8 0 L 4 2.5 L 5.65625 3.5351562 L 5.703125 3.5820312 C 5.708275 3.5793581 5.7135909 3.5768768 5.71875 3.5742188 L 8 5 L 8 3 C 8.0006612 2.9999997 8.0012918 3 8.0019531 3 C 10.770197 3 13 5.2298075 13 7.9980469 C 13 8.832342 12.776673 9.6058198 12.417969 10.296875 L 13.164062 11.042969 C 13.693581 10.148921 14.003906 9.110104 14.003906 7.9980469 C 14.003906 4.6893729 11.310637 1.9960937 8.0019531 1.9960938 C 8.0012928 1.9960938 8.0006603 1.9960935 8 1.9960938 L 8 0 z M 2.8378906 4.9589844 C 2.310263 5.8518782 2 6.8881493 2 7.9980469 C 2 11.306102 4.6922171 13.998931 8 14 L 8 16 L 12 13.5 L 10.34375 12.464844 L 10.298828 12.419922 C 10.293686 12.422601 10.288354 12.425071 10.283203 12.427734 L 8 11 L 8 13.003906 C 5.2326675 13.002842 2.9960938 10.765627 2.9960938 7.9980469 C 2.9960938 7.1639975 3.2206356 6.3911397 3.5800781 5.7011719 L 2.8378906 4.9589844 z "
       transform="matrix(0.26458333,0,0,0.26458333,0,292.76665)"
       id="path4558" />
  </g>
</svg>
